<svg width="158" height="158" viewBox="0 0 158 158" fill="none" xmlns="http://www.w3.org/2000/svg" xmlns:xlink="http://www.w3.org/1999/xlink">
<path d="M75.556,98L84.444,98C90.687,98 93.808,98 96.05,96.529C97.02,95.892 97.853,95.074 98.502,94.121C100,91.92 100,88.856 100,82.727C100,76.599 100,73.534 98.502,71.333C97.853,70.38 97.02,69.562 96.05,68.925C94.609,67.98 92.805,67.642 90.044,67.522C88.726,67.522 87.592,66.541 87.333,65.273C86.946,63.37 85.244,62 83.267,62L76.733,62C74.756,62 73.054,63.37 72.667,65.273C72.408,66.541 71.274,67.522 69.956,67.522C67.195,67.642 65.391,67.98 63.95,68.925C62.98,69.562 62.147,70.38 61.498,71.333C60,73.534 60,76.599 60,82.727C60,88.856 60,91.92 61.498,94.121C62.147,95.074 62.98,95.892 63.95,96.529C66.192,98 69.313,98 75.556,98Z" fill="#FFFFFF"/>
<path d="M80,77.818C77.239,77.818 75,80.016 75,82.727C75,85.438 77.239,87.636 80,87.636C82.761,87.636 85,85.438 85,82.727C85,80.016 82.761,77.818 80,77.818ZM71.667,82.727C71.667,78.209 75.398,74.545 80,74.545C84.602,74.545 88.333,78.209 88.333,82.727C88.333,87.246 84.602,90.909 80,90.909C75.398,90.909 71.667,87.246 71.667,82.727Z" clip-rule="evenodd" fill-rule="evenodd" fill="#363636"/>
<path d="M89.444,76.182C89.444,75.278 90.191,74.545 91.111,74.545L93.333,74.545C94.254,74.545 95,75.278 95,76.182C95,77.086 94.254,77.818 93.333,77.818L91.111,77.818C90.191,77.818 89.444,77.086 89.444,76.182Z" clip-rule="evenodd" fill-rule="evenodd" fill="#363636"/>
<path d="M80.381,32C57.194,32 38.133,50.033 36.274,73.026L31.628,73.026C30.158,73.026 28.833,73.928 28.274,75.312C27.714,76.695 28.029,78.285 29.073,79.339L37.198,87.544C38.613,88.972 40.894,88.972 42.309,87.544L50.434,79.339C51.478,78.285 51.793,76.695 51.233,75.312C50.674,73.928 49.349,73.026 47.879,73.026L43.56,73.026C45.397,54.162 61.158,39.385 80.381,39.385C93.778,39.385 105.505,46.565 112,57.318C113.05,59.056 115.284,59.598 116.991,58.53C118.698,57.462 119.231,55.188 118.181,53.451C110.411,40.587 96.385,32 80.381,32Z" fill="#FFFFFF"/>
<path d="M122.766,72.451C121.352,71.029 119.078,71.029 117.665,72.451L109.509,80.656C108.462,81.709 108.144,83.3 108.703,84.685C109.262,86.07 110.588,86.974 112.059,86.974L116.408,86.974C114.564,105.827 98.748,120.615 79.432,120.615C65.973,120.615 54.197,113.429 47.677,102.676C46.625,100.941 44.39,100.402 42.685,101.473C40.98,102.544 40.451,104.819 41.503,106.554C49.303,119.419 63.379,128 79.432,128C102.689,128 121.829,109.978 123.694,86.974L128.372,86.974C129.843,86.974 131.169,86.07 131.728,84.685C132.287,83.3 131.969,81.709 130.922,80.656L122.766,72.451Z" fill="#FFFFFF"/>
</svg>
