<svg width="26" height="44" viewBox="0 0 26 44" fill="none" xmlns="http://www.w3.org/2000/svg" xmlns:xlink="http://www.w3.org/1999/xlink">
<path d="M11.167,15.333L11.167,28.667L14.167,28.667L14.167,15.333L11.167,15.333ZM11.167,28.667C11.167,31.767 11.163,34.243 11.424,36.182C11.691,38.163 12.257,39.807 13.559,41.108L15.68,38.987C15.029,38.336 14.619,37.431 14.397,35.782C14.17,34.09 14.167,31.852 14.167,28.667L11.167,28.667ZM26,40.5C22.815,40.5 20.577,40.497 18.885,40.269C17.236,40.048 16.331,39.638 15.68,38.987L13.559,41.108C14.86,42.41 16.503,42.976 18.485,43.243C20.424,43.503 22.9,43.5 26,43.5L26,40.5ZM14.167,15.333C14.167,12.148 14.17,9.91 14.397,8.218C14.619,6.569 15.029,5.664 15.68,5.013L13.559,2.892C12.257,4.193 11.691,5.837 11.424,7.818C11.163,9.757 11.167,12.233 11.167,15.333L14.167,15.333ZM26,0.5C22.9,0.5 20.424,0.497 18.485,0.757C16.503,1.024 14.86,1.59 13.559,2.892L15.68,5.013C16.331,4.362 17.236,3.952 18.885,3.731C20.577,3.503 22.815,3.5 26,3.5L26,0.5Z" transform="rotate(-360 19.333 22)" fill="#F2FFF5"/>
<path d="M4.5,34C4.5,34.828 5.172,35.5 6,35.5C6.828,35.5 7.5,34.828 7.5,34L4.5,34ZM6,10L7.061,8.939C6.475,8.353 5.525,8.353 4.939,8.939L6,10ZM10.273,16.394C10.858,16.98 11.808,16.98 12.394,16.394C12.98,15.808 12.98,14.858 12.394,14.273L10.273,16.394ZM-0.394,14.273C-0.98,14.858 -0.98,15.808 -0.394,16.394C0.192,16.98 1.142,16.98 1.727,16.394L-0.394,14.273ZM7.5,34L7.5,10L4.5,10L4.5,34L7.5,34ZM4.939,11.061L10.273,16.394L12.394,14.273L7.061,8.939L4.939,11.061ZM4.939,8.939L-0.394,14.273L1.727,16.394L7.061,11.061L4.939,8.939Z" transform="rotate(-180 6 22)" fill="#F2FFF5"/>
</svg>
