<svg width="64" height="64" viewBox="0 0 64 64" fill="none" xmlns="http://www.w3.org/2000/svg" xmlns:xlink="http://www.w3.org/1999/xlink">
<path d="M10.338,56.324L11.399,55.263L11.399,55.263L10.338,56.324ZM10.338,7.677L9.278,6.616L9.278,6.616L10.338,7.677ZM6.5,18.658C6.495,19.487 7.163,20.162 7.992,20.167C8.82,20.171 9.495,19.504 9.5,18.675L6.5,18.658ZM9.5,45.325C9.495,44.497 8.82,43.829 7.992,43.833C7.163,43.838 6.495,44.513 6.5,45.342L9.5,45.325ZM23.995,6.833L26.662,6.833L26.662,3.833L23.995,3.833L23.995,6.833ZM41.162,21.333L41.162,42.667L44.162,42.667L44.162,21.333L41.162,21.333ZM26.662,57.167L23.995,57.167L23.995,60.167L26.662,60.167L26.662,57.167ZM23.995,57.167C20.182,57.167 17.472,57.164 15.417,56.887C13.405,56.617 12.246,56.109 11.399,55.263L9.278,57.384C10.775,58.881 12.672,59.545 15.017,59.86C17.319,60.17 20.266,60.167 23.995,60.167L23.995,57.167ZM41.162,42.667C41.162,46.48 41.159,49.19 40.883,51.245C40.612,53.257 40.105,54.417 39.258,55.263L41.38,57.384C42.876,55.888 43.541,53.99 43.856,51.645C44.165,49.343 44.162,46.396 44.162,42.667L41.162,42.667ZM26.662,60.167C30.391,60.167 33.338,60.17 35.64,59.86C37.985,59.545 39.883,58.881 41.38,57.384L39.258,55.263C38.412,56.109 37.253,56.617 35.24,56.887C33.185,57.164 30.476,57.167 26.662,57.167L26.662,60.167ZM26.662,6.833C30.476,6.833 33.185,6.837 35.24,7.113C37.253,7.383 38.412,7.891 39.258,8.737L41.38,6.616C39.883,5.119 37.985,4.455 35.64,4.14C33.338,3.83 30.391,3.833 26.662,3.833L26.662,6.833ZM44.162,21.333C44.162,17.605 44.165,14.657 43.856,12.355C43.541,10.011 42.876,8.113 41.38,6.616L39.258,8.737C40.105,9.584 40.612,10.743 40.883,12.755C41.159,14.81 41.162,17.52 41.162,21.333L44.162,21.333ZM23.995,3.833C20.266,3.833 17.319,3.83 15.017,4.14C12.672,4.455 10.775,5.119 9.278,6.616L11.399,8.737C12.246,7.891 13.405,7.383 15.417,7.113C17.472,6.837 20.182,6.833 23.995,6.833L23.995,3.833ZM9.5,18.675C9.516,15.763 9.591,13.654 9.888,12.036C10.178,10.461 10.656,9.48 11.399,8.737L9.278,6.616C7.972,7.922 7.297,9.536 6.938,11.494C6.586,13.409 6.516,15.77 6.5,18.658L9.5,18.675ZM6.5,45.342C6.516,48.23 6.586,50.591 6.938,52.506C7.297,54.464 7.972,56.078 9.278,57.384L11.399,55.263C10.656,54.52 10.178,53.539 9.888,51.964C9.591,50.346 9.516,48.237 9.5,45.325L6.5,45.342Z" transform="rotate(-360 25.331 32)" fill="#F2FFF5"/>
<path d="M41.167,25.333L41.167,38.667L44.167,38.667L44.167,25.333L41.167,25.333ZM41.167,38.667C41.167,41.767 41.163,44.243 41.424,46.182C41.691,48.163 42.257,49.807 43.559,51.108L45.68,48.987C45.029,48.336 44.619,47.431 44.397,45.782C44.17,44.09 44.167,41.852 44.167,38.667L41.167,38.667ZM56,50.5C52.815,50.5 50.577,50.497 48.885,50.269C47.236,50.048 46.331,49.638 45.68,48.987L43.559,51.108C44.86,52.41 46.503,52.976 48.485,53.243C50.424,53.503 52.9,53.5 56,53.5L56,50.5ZM44.167,25.333C44.167,22.148 44.17,19.91 44.397,18.218C44.619,16.569 45.029,15.664 45.68,15.013L43.559,12.892C42.257,14.193 41.691,15.837 41.424,17.818C41.163,19.757 41.167,22.233 41.167,25.333L44.167,25.333ZM56,10.5C52.9,10.5 50.424,10.497 48.485,10.757C46.503,11.024 44.86,11.59 43.559,12.892L45.68,15.013C46.331,14.362 47.236,13.952 48.885,13.731C50.577,13.503 52.815,13.5 56,13.5L56,10.5Z" transform="rotate(-360 49.333 32)" fill="#F2FFF5"/>
<path d="M34.5,44C34.5,44.828 35.172,45.5 36,45.5C36.828,45.5 37.5,44.828 37.5,44L34.5,44ZM36,20L37.061,18.939C36.475,18.353 35.525,18.353 34.939,18.939L36,20ZM40.273,26.394C40.858,26.98 41.808,26.98 42.394,26.394C42.98,25.808 42.98,24.858 42.394,24.273L40.273,26.394ZM29.606,24.273C29.02,24.858 29.02,25.808 29.606,26.394C30.192,26.98 31.142,26.98 31.727,26.394L29.606,24.273ZM37.5,44L37.5,20L34.5,20L34.5,44L37.5,44ZM34.939,21.061L40.273,26.394L42.394,24.273L37.061,18.939L34.939,21.061ZM34.939,18.939L29.606,24.273L31.727,26.394L37.061,21.061L34.939,18.939Z" transform="rotate(-180 36 32)" fill="#F2FFF5"/>
</svg>
