<svg width="54" height="54" viewBox="0 0 54 54" fill="none" xmlns="http://www.w3.org/2000/svg" xmlns:xlink="http://www.w3.org/1999/xlink">
<path d="M0.718,14.861C-0.667,17.39 -0.667,20.441 -0.667,26.544L-0.667,30.6C-0.667,41.002 -0.667,46.204 2.457,49.435C5.582,52.667 10.61,52.667 20.667,52.667L31.333,52.667C41.39,52.667 46.418,52.667 49.542,49.435C52.667,46.204 52.667,41.002 52.667,30.6L52.667,26.544C52.667,20.441 52.667,17.39 51.282,14.861C49.897,12.331 47.368,10.761 42.309,7.622L36.976,4.312C31.628,0.993 28.954,-0.667 26,-0.667C23.045,-0.667 20.372,0.993 15.024,4.312L9.691,7.622C4.632,10.761 2.102,12.331 0.718,14.861ZM18,40C16.895,40 16,40.895 16,42C16,43.105 16.895,44 18,44L34,44C35.104,44 36,43.105 36,42C36,40.895 35.104,40 34,40L18,40Z" clip-rule="evenodd" fill-rule="evenodd" fill="#FFFFFF"/>
</svg>
