<svg width="40" height="58" viewBox="0 0 40 58" fill="none" xmlns="http://www.w3.org/2000/svg" xmlns:xlink="http://www.w3.org/1999/xlink">
<path d="M4.338,52.324L5.399,51.263L5.399,51.263L4.338,52.324ZM4.338,3.677L3.278,2.616L3.278,2.616L4.338,3.677ZM0.5,14.658C0.495,15.487 1.163,16.162 1.992,16.167C2.82,16.171 3.495,15.504 3.5,14.675L0.5,14.658ZM3.5,41.325C3.495,40.497 2.82,39.829 1.992,39.833C1.163,39.838 0.495,40.513 0.5,41.342L3.5,41.325ZM17.995,2.833L20.662,2.833L20.662,-0.167L17.995,-0.167L17.995,2.833ZM35.162,17.333L35.162,38.667L38.162,38.667L38.162,17.333L35.162,17.333ZM20.662,53.167L17.995,53.167L17.995,56.167L20.662,56.167L20.662,53.167ZM17.995,53.167C14.182,53.167 11.472,53.164 9.417,52.887C7.405,52.617 6.246,52.109 5.399,51.263L3.278,53.384C4.775,54.881 6.672,55.545 9.017,55.86C11.319,56.17 14.266,56.167 17.995,56.167L17.995,53.167ZM35.162,38.667C35.162,42.48 35.159,45.19 34.883,47.245C34.612,49.257 34.105,50.417 33.258,51.263L35.38,53.384C36.876,51.888 37.541,49.99 37.856,47.645C38.165,45.343 38.162,42.396 38.162,38.667L35.162,38.667ZM20.662,56.167C24.391,56.167 27.338,56.17 29.64,55.86C31.985,55.545 33.883,54.881 35.38,53.384L33.258,51.263C32.412,52.109 31.253,52.617 29.24,52.887C27.185,53.164 24.476,53.167 20.662,53.167L20.662,56.167ZM20.662,2.833C24.476,2.833 27.185,2.837 29.24,3.113C31.253,3.383 32.412,3.891 33.258,4.737L35.38,2.616C33.883,1.119 31.985,0.455 29.64,0.14C27.338,-0.17 24.391,-0.167 20.662,-0.167L20.662,2.833ZM38.162,17.333C38.162,13.605 38.165,10.657 37.856,8.355C37.541,6.011 36.876,4.113 35.38,2.616L33.258,4.737C34.105,5.584 34.612,6.743 34.883,8.755C35.159,10.81 35.162,13.52 35.162,17.333L38.162,17.333ZM17.995,-0.167C14.266,-0.167 11.319,-0.17 9.017,0.14C6.672,0.455 4.775,1.119 3.278,2.616L5.399,4.737C6.246,3.891 7.405,3.383 9.417,3.113C11.472,2.837 14.182,2.833 17.995,2.833L17.995,-0.167ZM3.5,14.675C3.516,11.763 3.591,9.654 3.888,8.036C4.178,6.461 4.656,5.48 5.399,4.737L3.278,2.616C1.972,3.922 1.297,5.536 0.938,7.494C0.586,9.409 0.516,11.77 0.5,14.658L3.5,14.675ZM0.5,41.342C0.516,44.23 0.586,46.591 0.938,48.506C1.297,50.464 1.972,52.078 3.278,53.384L5.399,51.263C4.656,50.52 4.178,49.539 3.888,47.964C3.591,46.346 3.516,44.237 3.5,41.325L0.5,41.342Z" transform="rotate(-360 19.331 28)" fill="#F2FFF5"/>
</svg>
