<svg width="64" height="58" viewBox="0 0 64 58" fill="none" xmlns="http://www.w3.org/2000/svg" xmlns:xlink="http://www.w3.org/1999/xlink">
<path d="M24.889,56.8L39.111,56.8C49.098,56.8 54.092,56.8 57.679,54.447C59.232,53.428 60.565,52.119 61.603,50.594C64,47.072 64,42.169 64,32.364C64,22.558 64,17.655 61.603,14.133C60.565,12.608 59.232,11.299 57.679,10.281C55.374,8.768 52.489,8.228 48.07,8.035C45.962,8.035 44.147,6.466 43.733,4.436C43.113,1.392 40.39,-0.8 37.228,-0.8L26.772,-0.8C23.61,-0.8 20.887,1.392 20.267,4.436C19.853,6.466 18.038,8.035 15.93,8.035C11.511,8.228 8.626,8.768 6.321,10.281C4.768,11.299 3.435,12.608 2.397,14.133C0,17.655 0,22.558 0,32.364C0,42.169 0,47.072 2.397,50.594C3.435,52.119 4.768,53.428 6.321,54.447C9.908,56.8 14.902,56.8 24.889,56.8Z" fill="#F2FFF5"/>
<path d="M32,24.509C27.582,24.509 24,28.026 24,32.364C24,36.702 27.582,40.218 32,40.218C36.418,40.218 40,36.702 40,32.364C40,28.026 36.418,24.509 32,24.509ZM18.667,32.364C18.667,25.134 24.636,19.273 32,19.273C39.364,19.273 45.333,25.134 45.333,32.364C45.333,39.594 39.364,45.455 32,45.455C24.636,45.455 18.667,39.594 18.667,32.364Z" clip-rule="evenodd" fill-rule="evenodd" fill="#363636"/>
<path d="M47.111,21.891C47.111,20.445 48.305,19.273 49.778,19.273L53.333,19.273C54.806,19.273 56,20.445 56,21.891C56,23.337 54.806,24.509 53.333,24.509L49.778,24.509C48.305,24.509 47.111,23.337 47.111,21.891Z" clip-rule="evenodd" fill-rule="evenodd" fill="#363636"/>
</svg>
